# MagicaVoxel @ Ephtracy

# group
o 

# material
mtllib weapon.mtl
usemtl palette

# normals
vn -1 0 0
vn 1 0 0
vn 0 0 1
vn 0 0 -1
vn 0 -1 0
vn 0 1 0

# texcoords
vt 0.982422 0.5
vt 0.986328 0.5
vt 0.990234 0.5
vt 0.994141 0.5

# verts
v -1.4 0.8 -0.1
v -1.4 0.8 -0.6
v -1.4 0.9 -0.2
v -1.4 0.9 -0.5
v -1.4 1.1 -0.2
v -1.4 1.1 -0.5
v -1.4 1.2 -0.1
v -1.4 1.2 -0.6
v -1.3 0.9 2.23517e-08
v -1.3 0.9 -0.1
v -1.3 0.9 -0.6
v -1.3 0.9 -0.7
v -1.3 1.1 2.23517e-08
v -1.3 1.1 -0.1
v -1.3 1.1 -0.6
v -1.3 1.1 -0.7
v -1.3 1.2 -0.2
v -1.3 1.2 -0.5
v -1.3 1.3 -0.2
v -1.3 1.3 -0.5
v -0.5 0.7 -0.3
v -0.5 0.7 -0.4
v -0.5 0.8 -0.3
v -0.5 0.8 -0.4
v -0.4 0.6 -0.3
v -0.4 0.6 -0.4
v -0.4 0.7 -0.1
v -0.4 0.7 -0.3
v -0.4 0.7 -0.4
v -0.4 0.7 -0.6
v -0.4 0.8 -0.1
v -0.4 0.8 -0.3
v -0.4 0.8 -0.4
v -0.4 0.8 -0.6
v -0.3 0.5 -0.3
v -0.3 0.5 -0.4
v -0.3 0.6 -0.2
v -0.3 0.6 -0.3
v -0.3 0.6 -0.4
v -0.3 0.6 -0.5
v -0.3 0.7 -0.2
v -0.3 0.7 -0.3
v -0.3 0.7 -0.4
v -0.3 0.7 -0.5
v -0.2 0.6 -0.1
v -0.2 0.6 -0.2
v -0.2 0.6 -0.5
v -0.2 0.6 -0.6
v -0.2 0.7 -0.1
v -0.2 0.7 -0.2
v -0.2 0.7 -0.5
v -0.2 0.7 -0.6
v -0.1 0.4 -0.3
v -0.1 0.4 -0.4
v -0.1 0.5 -0.1
v -0.1 0.5 -0.3
v -0.1 0.5 -0.4
v -0.1 0.5 -0.6
v -0.1 0.6 -0.1
v -0.1 0.6 -0.3
v -0.1 0.6 -0.4
v -0.1 0.6 -0.6
v 0 0.9 -0.2
v 0 0.9 -0.5
v 0 1.1 -0.2
v 0 1.1 -0.5
v 0.1 0.4 -0.1
v 0.1 0.4 -0.3
v 0.1 0.4 -0.4
v 0.1 0.4 -0.6
v 0.1 0.5 -0.1
v 0.1 0.5 -0.3
v 0.1 0.5 -0.4
v 0.1 0.5 -0.6
v 0.1 0.7 -0.3
v 0.1 0.7 -0.4
v 0.1 0.8 -0.3
v 0.1 0.8 -0.4
v 0.2 0.3 -0.3
v 0.2 0.3 -0.4
v 0.2 0.4 -0.3
v 0.2 0.4 -0.4
v 0.2 0.6 -0.3
v 0.2 0.6 -0.4
v 0.2 0.7 -0.3
v 0.2 0.7 -0.4
v 0.3 0.3 -0.2
v 0.3 0.3 -0.3
v 0.3 0.3 -0.4
v 0.3 0.3 -0.5
v 0.3 0.4 -0.2
v 0.3 0.4 -0.3
v 0.3 0.4 -0.4
v 0.3 0.4 -0.5
v 0.4 0.1 -0.2
v 0.4 0.1 -0.5
v 0.4 0.3 -0.1
v 0.4 0.3 -0.2
v 0.4 0.3 -0.5
v 0.4 0.3 -0.6
v 0.4 0.4 -0.1
v 0.4 0.4 -0.2
v 0.4 0.4 -0.5
v 0.4 0.4 -0.6
v 0.4 0.5 -0.1
v 0.4 0.5 -0.6
v 0.4 0.8 -0.1
v 0.4 0.8 -0.6
v 0.5 0 -0.2
v 0.5 0 -0.5
v 0.5 0.1 -0.1
v 0.5 0.1 -0.2
v 0.5 0.1 -0.5
v 0.5 0.1 -0.6
v 0.5 0.3 -0.1
v 0.5 0.3 -0.2
v 0.5 0.3 -0.5
v 0.5 0.3 -0.6
v -0.3 0.6 -0.3
v -0.3 0.6 -0.4
v -0.3 0.7 -0.2
v -0.3 0.7 -0.3
v -0.3 0.7 -0.4
v -0.3 0.7 -0.5
v -0.3 0.8 -0.2
v -0.3 0.8 -0.5
v -0.2 0.7 -0.1
v -0.2 0.7 -0.2
v -0.2 0.7 -0.5
v -0.2 0.7 -0.6
v -0.2 0.8 -0.1
v -0.2 0.8 -0.2
v -0.2 0.8 -0.5
v -0.2 0.8 -0.6
v -0.1 0.5 -0.3
v -0.1 0.5 -0.4
v -0.1 0.6 -0.1
v -0.1 0.6 -0.3
v -0.1 0.6 -0.4
v -0.1 0.6 -0.6
v -0.1 0.7 -0.1
v -0.1 0.7 -0.3
v -0.1 0.7 -0.4
v -0.1 0.7 -0.6
v 0.1 0.5 -0.1
v 0.1 0.5 -0.3
v 0.1 0.5 -0.4
v 0.1 0.5 -0.6
v 0.1 0.6 -0.1
v 0.1 0.6 -0.3
v 0.1 0.6 -0.4
v 0.1 0.6 -0.6
v 0.2 0.7 -0.3
v 0.2 0.7 -0.4
v 0.2 0.8 -0.3
v 0.2 0.8 -0.4
v 0.3 0.6 -0.3
v 0.3 0.6 -0.4
v 0.3 0.7 -0.3
v 0.3 0.7 -0.4
v 0.5 0.9 2.23517e-08
v 0.5 0.9 -0.1
v 0.5 0.9 -0.6
v 0.5 0.9 -0.7
v 0.5 1.1 2.23517e-08
v 0.5 1.1 -0.1
v 0.5 1.1 -0.6
v 0.5 1.1 -0.7
v 0.8 0 -0.2
v 0.8 0 -0.5
v 0.8 0.1 -0.1
v 0.8 0.1 -0.2
v 0.8 0.1 -0.5
v 0.8 0.1 -0.6
v 0.8 1.2 -0.1
v 0.8 1.2 -0.2
v 0.8 1.2 -0.5
v 0.8 1.2 -0.6
v 0.8 1.3 -0.2
v 0.8 1.3 -0.5
v 0.9 0.1 -0.2
v 0.9 0.1 -0.5
v 0.9 1.2 -0.2
v 0.9 1.2 -0.5
v -1.3 0.9 2.23517e-08
v -1.3 1.1 2.23517e-08
v 0.5 0.9 2.23517e-08
v 0.5 1.1 2.23517e-08
v -1.4 0.8 -0.1
v -1.4 1.2 -0.1
v -1.3 0.9 -0.1
v -1.3 1.1 -0.1
v -0.4 0.7 -0.1
v -0.4 0.8 -0.1
v -0.2 0.6 -0.1
v -0.2 0.7 -0.1
v -0.2 0.8 -0.1
v -0.1 0.5 -0.1
v -0.1 0.6 -0.1
v -0.1 0.7 -0.1
v 0.1 0.4 -0.1
v 0.1 0.5 -0.1
v 0.1 0.6 -0.1
v 0.4 0.3 -0.1
v 0.4 0.4 -0.1
v 0.4 0.5 -0.1
v 0.4 0.8 -0.1
v 0.5 0.1 -0.1
v 0.5 0.3 -0.1
v 0.5 0.9 -0.1
v 0.5 1.1 -0.1
v 0.6 0.6 -0.1
v 0.6 0.7 -0.1
v 0.6 0.8 -0.1
v 0.6 0.9 -0.1
v 0.7 0.6 -0.1
v 0.7 0.7 -0.1
v 0.7 0.8 -0.1
v 0.7 0.9 -0.1
v 0.8 0.1 -0.1
v 0.8 1.2 -0.1
v -1.3 1.2 -0.2
v -1.3 1.3 -0.2
v -0.3 0.6 -0.2
v -0.3 0.7 -0.2
v -0.2 0.6 -0.2
v -0.2 0.7 -0.2
v 0.3 0.3 -0.2
v 0.3 0.4 -0.2
v 0.4 0.1 -0.2
v 0.4 0.3 -0.2
v 0.4 0.4 -0.2
v 0.5 0 -0.2
v 0.5 0.1 -0.2
v 0.5 0.3 -0.2
v 0.8 0 -0.2
v 0.8 0.1 -0.2
v 0.8 1.2 -0.2
v 0.8 1.3 -0.2
v 0.9 0.1 -0.2
v 0.9 1.2 -0.2
v -0.5 0.7 -0.3
v -0.5 0.8 -0.3
v -0.4 0.6 -0.3
v -0.4 0.7 -0.3
v -0.4 0.8 -0.3
v -0.3 0.5 -0.3
v -0.3 0.6 -0.3
v -0.3 0.7 -0.3
v -0.1 0.4 -0.3
v -0.1 0.5 -0.3
v -0.1 0.6 -0.3
v 0.1 0.4 -0.3
v 0.1 0.5 -0.3
v 0.1 0.7 -0.3
v 0.1 0.8 -0.3
v 0.2 0.3 -0.3
v 0.2 0.4 -0.3
v 0.2 0.6 -0.3
v 0.2 0.7 -0.3
v 0.2 0.8 -0.3
v 0.3 0.3 -0.3
v 0.3 0.4 -0.3
v 0.3 0.6 -0.3
v 0.3 0.7 -0.3
v -0.3 0.6 -0.4
v -0.3 0.7 -0.4
v -0.1 0.5 -0.4
v -0.1 0.6 -0.4
v -0.1 0.7 -0.4
v 0.1 0.5 -0.4
v 0.1 0.6 -0.4
v -1.4 0.9 -0.5
v -1.4 1.1 -0.5
v -0.3 0.7 -0.5
v -0.3 0.8 -0.5
v -0.2 0.7 -0.5
v -0.2 0.8 -0.5
v 0 0.9 -0.5
v 0 1.1 -0.5
v -1.4 0.9 -0.2
v -1.4 1.1 -0.2
v -0.3 0.7 -0.2
v -0.3 0.8 -0.2
v -0.2 0.7 -0.2
v -0.2 0.8 -0.2
v 0 0.9 -0.2
v 0 1.1 -0.2
v -0.3 0.6 -0.3
v -0.3 0.7 -0.3
v -0.1 0.5 -0.3
v -0.1 0.6 -0.3
v -0.1 0.7 -0.3
v 0.1 0.5 -0.3
v 0.1 0.6 -0.3
v -0.5 0.7 -0.4
v -0.5 0.8 -0.4
v -0.4 0.6 -0.4
v -0.4 0.7 -0.4
v -0.4 0.8 -0.4
v -0.3 0.5 -0.4
v -0.3 0.6 -0.4
v -0.3 0.7 -0.4
v -0.1 0.4 -0.4
v -0.1 0.5 -0.4
v -0.1 0.6 -0.4
v 0.1 0.4 -0.4
v 0.1 0.5 -0.4
v 0.1 0.7 -0.4
v 0.1 0.8 -0.4
v 0.2 0.3 -0.4
v 0.2 0.4 -0.4
v 0.2 0.6 -0.4
v 0.2 0.7 -0.4
v 0.2 0.8 -0.4
v 0.3 0.3 -0.4
v 0.3 0.4 -0.4
v 0.3 0.6 -0.4
v 0.3 0.7 -0.4
v -1.3 1.2 -0.5
v -1.3 1.3 -0.5
v -0.3 0.6 -0.5
v -0.3 0.7 -0.5
v -0.2 0.6 -0.5
v -0.2 0.7 -0.5
v 0.3 0.3 -0.5
v 0.3 0.4 -0.5
v 0.4 0.1 -0.5
v 0.4 0.3 -0.5
v 0.4 0.4 -0.5
v 0.5 0 -0.5
v 0.5 0.1 -0.5
v 0.5 0.3 -0.5
v 0.8 0 -0.5
v 0.8 0.1 -0.5
v 0.8 1.2 -0.5
v 0.8 1.3 -0.5
v 0.9 0.1 -0.5
v 0.9 1.2 -0.5
v -1.4 0.8 -0.6
v -1.4 1.2 -0.6
v -1.3 0.9 -0.6
v -1.3 1.1 -0.6
v -0.4 0.7 -0.6
v -0.4 0.8 -0.6
v -0.2 0.6 -0.6
v -0.2 0.7 -0.6
v -0.2 0.8 -0.6
v -0.1 0.5 -0.6
v -0.1 0.6 -0.6
v -0.1 0.7 -0.6
v 0.1 0.4 -0.6
v 0.1 0.5 -0.6
v 0.1 0.6 -0.6
v 0.4 0.3 -0.6
v 0.4 0.4 -0.6
v 0.4 0.5 -0.6
v 0.4 0.8 -0.6
v 0.5 0.1 -0.6
v 0.5 0.3 -0.6
v 0.5 0.9 -0.6
v 0.5 1.1 -0.6
v 0.6 0.6 -0.6
v 0.6 0.7 -0.6
v 0.6 0.8 -0.6
v 0.6 0.9 -0.6
v 0.7 0.6 -0.6
v 0.7 0.7 -0.6
v 0.7 0.8 -0.6
v 0.7 0.9 -0.6
v 0.8 0.1 -0.6
v 0.8 1.2 -0.6
v -1.3 0.9 -0.7
v -1.3 1.1 -0.7
v 0.5 0.9 -0.7
v 0.5 1.1 -0.7
v 0.5 0 -0.2
v 0.8 0 -0.2
v 0.5 0 -0.5
v 0.8 0 -0.5
v 0.5 0.1 -0.1
v 0.8 0.1 -0.1
v 0.4 0.1 -0.2
v 0.5 0.1 -0.2
v 0.8 0.1 -0.2
v 0.9 0.1 -0.2
v 0.4 0.1 -0.5
v 0.5 0.1 -0.5
v 0.8 0.1 -0.5
v 0.9 0.1 -0.5
v 0.5 0.1 -0.6
v 0.8 0.1 -0.6
v 0.4 0.3 -0.1
v 0.5 0.3 -0.1
v 0.3 0.3 -0.2
v 0.4 0.3 -0.2
v 0.5 0.3 -0.2
v 0.2 0.3 -0.3
v 0.3 0.3 -0.3
v 0.2 0.3 -0.4
v 0.3 0.3 -0.4
v 0.3 0.3 -0.5
v 0.4 0.3 -0.5
v 0.5 0.3 -0.5
v 0.4 0.3 -0.6
v 0.5 0.3 -0.6
v 0.1 0.4 -0.1
v 0.4 0.4 -0.1
v 0.3 0.4 -0.2
v 0.4 0.4 -0.2
v -0.1 0.4 -0.3
v 0.1 0.4 -0.3
v 0.2 0.4 -0.3
v 0.3 0.4 -0.3
v -0.1 0.4 -0.4
v 0.1 0.4 -0.4
v 0.2 0.4 -0.4
v 0.3 0.4 -0.4
v 0.3 0.4 -0.5
v 0.4 0.4 -0.5
v 0.1 0.4 -0.6
v 0.4 0.4 -0.6
v -0.1 0.5 -0.1
v 0.1 0.5 -0.1
v -0.3 0.5 -0.3
v -0.1 0.5 -0.3
v 0.1 0.5 -0.3
v -0.3 0.5 -0.4
v -0.1 0.5 -0.4
v 0.1 0.5 -0.4
v -0.1 0.5 -0.6
v 0.1 0.5 -0.6
v -0.2 0.6 -0.1
v -0.1 0.6 -0.1
v -0.3 0.6 -0.2
v -0.2 0.6 -0.2
v -0.4 0.6 -0.3
v -0.3 0.6 -0.3
v -0.1 0.6 -0.3
v 0.2 0.6 -0.3
v 0.3 0.6 -0.3
v -0.4 0.6 -0.4
v -0.3 0.6 -0.4
v -0.1 0.6 -0.4
v 0.2 0.6 -0.4
v 0.3 0.6 -0.4
v -0.3 0.6 -0.5
v -0.2 0.6 -0.5
v -0.2 0.6 -0.6
v -0.1 0.6 -0.6
v -0.4 0.7 -0.1
v -0.2 0.7 -0.1
v -0.3 0.7 -0.2
v -0.2 0.7 -0.2
v -0.5 0.7 -0.3
v -0.4 0.7 -0.3
v -0.3 0.7 -0.3
v 0.1 0.7 -0.3
v 0.2 0.7 -0.3
v -0.5 0.7 -0.4
v -0.4 0.7 -0.4
v -0.3 0.7 -0.4
v 0.1 0.7 -0.4
v 0.2 0.7 -0.4
v -0.3 0.7 -0.5
v -0.2 0.7 -0.5
v -0.4 0.7 -0.6
v -0.2 0.7 -0.6
v -1.4 0.8 -0.1
v -0.4 0.8 -0.1
v -0.2 0.8 -0.1
v 0.4 0.8 -0.1
v -0.3 0.8 -0.2
v -0.2 0.8 -0.2
v -0.5 0.8 -0.3
v -0.4 0.8 -0.3
v 0.1 0.8 -0.3
v 0.2 0.8 -0.3
v -0.5 0.8 -0.4
v -0.4 0.8 -0.4
v 0.1 0.8 -0.4
v 0.2 0.8 -0.4
v -0.3 0.8 -0.5
v -0.2 0.8 -0.5
v -1.4 0.8 -0.6
v -0.4 0.8 -0.6
v -0.2 0.8 -0.6
v 0.4 0.8 -0.6
v -1.3 0.9 2.23517e-08
v 0.5 0.9 2.23517e-08
v -1.3 0.9 -0.1
v 0.5 0.9 -0.1
v -1.3 0.9 -0.6
v 0.5 0.9 -0.6
v -1.3 0.9 -0.7
v 0.5 0.9 -0.7
v -1.4 1.1 -0.2
v 0 1.1 -0.2
v -1.4 1.1 -0.5
v 0 1.1 -0.5
v 0.1 0.5 -0.1
v 0.4 0.5 -0.1
v -0.1 0.5 -0.3
v 0.1 0.5 -0.3
v -0.1 0.5 -0.4
v 0.1 0.5 -0.4
v 0.1 0.5 -0.6
v 0.4 0.5 -0.6
v -0.1 0.6 -0.1
v 0.1 0.6 -0.1
v -0.3 0.6 -0.3
v -0.1 0.6 -0.3
v 0.1 0.6 -0.3
v -0.3 0.6 -0.4
v -0.1 0.6 -0.4
v 0.1 0.6 -0.4
v -0.1 0.6 -0.6
v 0.1 0.6 -0.6
v -0.2 0.7 -0.1
v -0.1 0.7 -0.1
v -0.3 0.7 -0.2
v -0.2 0.7 -0.2
v -0.3 0.7 -0.3
v -0.1 0.7 -0.3
v 0.2 0.7 -0.3
v 0.3 0.7 -0.3
v -0.3 0.7 -0.4
v -0.1 0.7 -0.4
v 0.2 0.7 -0.4
v 0.3 0.7 -0.4
v -0.3 0.7 -0.5
v -0.2 0.7 -0.5
v -0.2 0.7 -0.6
v -0.1 0.7 -0.6
v -1.4 0.9 -0.2
v 0 0.9 -0.2
v -1.4 0.9 -0.5
v 0 0.9 -0.5
v -1.3 1.1 2.23517e-08
v 0.5 1.1 2.23517e-08
v -1.3 1.1 -0.1
v 0.5 1.1 -0.1
v -1.3 1.1 -0.6
v 0.5 1.1 -0.6
v -1.3 1.1 -0.7
v 0.5 1.1 -0.7
v -1.4 1.2 -0.1
v 0.8 1.2 -0.1
v -1.3 1.2 -0.2
v 0.8 1.2 -0.2
v 0.9 1.2 -0.2
v -1.3 1.2 -0.5
v 0.8 1.2 -0.5
v 0.9 1.2 -0.5
v -1.4 1.2 -0.6
v 0.8 1.2 -0.6
v -1.3 1.3 -0.2
v 0.8 1.3 -0.2
v -1.3 1.3 -0.5
v 0.8 1.3 -0.5

# faces
f 3/2/1 2/2/1 1/2/1
f 4/2/1 2/2/1 3/2/1
f 5/2/1 3/2/1 1/2/1
f 6/2/1 2/2/1 4/2/1
f 7/2/1 5/2/1 1/2/1
f 7/2/1 6/2/1 5/2/1
f 8/2/1 2/2/1 6/2/1
f 8/2/1 6/2/1 7/2/1
f 13/2/1 10/2/1 9/2/1
f 14/2/1 10/2/1 13/2/1
f 15/2/1 12/2/1 11/2/1
f 16/2/1 12/2/1 15/2/1
f 19/2/1 18/2/1 17/2/1
f 20/2/1 18/2/1 19/2/1
f 23/2/1 22/2/1 21/2/1
f 24/2/1 22/2/1 23/2/1
f 28/2/1 26/2/1 25/2/1
f 29/2/1 26/2/1 28/2/1
f 31/2/1 28/2/1 27/2/1
f 32/2/1 28/2/1 31/2/1
f 33/2/1 30/2/1 29/2/1
f 34/2/1 30/2/1 33/2/1
f 38/2/1 36/2/1 35/2/1
f 39/2/1 36/2/1 38/2/1
f 41/2/1 38/2/1 37/2/1
f 42/2/1 38/2/1 41/2/1
f 43/2/1 40/2/1 39/2/1
f 44/2/1 40/2/1 43/2/1
f 49/2/1 46/2/1 45/2/1
f 50/2/1 46/2/1 49/2/1
f 51/2/1 48/2/1 47/2/1
f 52/2/1 48/2/1 51/2/1
f 56/2/1 54/2/1 53/2/1
f 57/2/1 54/2/1 56/2/1
f 59/2/1 56/2/1 55/2/1
f 60/2/1 56/2/1 59/2/1
f 61/2/1 58/2/1 57/2/1
f 62/2/1 58/2/1 61/2/1
f 65/2/1 64/2/1 63/2/1
f 66/2/1 64/2/1 65/2/1
f 71/2/1 68/2/1 67/2/1
f 72/2/1 68/2/1 71/2/1
f 73/2/1 70/2/1 69/2/1
f 74/2/1 70/2/1 73/2/1
f 77/3/1 76/3/1 75/3/1
f 78/3/1 76/3/1 77/3/1
f 81/2/1 80/2/1 79/2/1
f 82/2/1 80/2/1 81/2/1
f 85/3/1 84/3/1 83/3/1
f 86/3/1 84/3/1 85/3/1
f 91/2/1 88/2/1 87/2/1
f 92/2/1 88/2/1 91/2/1
f 93/2/1 90/2/1 89/2/1
f 94/2/1 90/2/1 93/2/1
f 98/2/1 96/2/1 95/2/1
f 99/2/1 96/2/1 98/2/1
f 101/2/1 98/2/1 97/2/1
f 102/2/1 98/2/1 101/2/1
f 103/2/1 100/2/1 99/2/1
f 104/2/1 100/2/1 103/2/1
f 107/2/1 106/2/1 105/2/1
f 108/2/1 106/2/1 107/2/1
f 112/2/1 110/2/1 109/2/1
f 113/2/1 110/2/1 112/2/1
f 115/2/1 112/2/1 111/2/1
f 116/2/1 112/2/1 115/2/1
f 117/2/1 114/2/1 113/2/1
f 118/2/1 114/2/1 117/2/1
f 119/2/2 120/2/2 122/2/2
f 122/2/2 120/2/2 123/2/2
f 121/2/2 122/2/2 125/2/2
f 123/2/2 124/2/2 125/2/2
f 122/2/2 123/2/2 125/2/2
f 125/2/2 124/2/2 126/2/2
f 127/2/2 128/2/2 131/2/2
f 131/2/2 128/2/2 132/2/2
f 129/2/2 130/2/2 133/2/2
f 133/2/2 130/2/2 134/2/2
f 135/2/2 136/2/2 138/2/2
f 138/2/2 136/2/2 139/2/2
f 137/2/2 138/2/2 141/2/2
f 141/2/2 138/2/2 142/2/2
f 139/2/2 140/2/2 143/2/2
f 143/2/2 140/2/2 144/2/2
f 145/2/2 146/2/2 149/2/2
f 149/2/2 146/2/2 150/2/2
f 147/2/2 148/2/2 151/2/2
f 151/2/2 148/2/2 152/2/2
f 153/3/2 154/3/2 155/3/2
f 155/3/2 154/3/2 156/3/2
f 157/3/2 158/3/2 159/3/2
f 159/3/2 158/3/2 160/3/2
f 161/2/2 162/2/2 165/2/2
f 165/2/2 162/2/2 166/2/2
f 163/2/2 164/2/2 167/2/2
f 167/2/2 164/2/2 168/2/2
f 169/2/2 170/2/2 172/2/2
f 172/2/2 170/2/2 173/2/2
f 171/2/2 172/2/2 175/2/2
f 175/2/2 172/2/2 176/2/2
f 173/2/2 174/2/2 177/2/2
f 177/2/2 174/2/2 178/2/2
f 176/2/2 177/2/2 179/2/2
f 179/2/2 177/2/2 180/2/2
f 181/2/2 182/2/2 183/2/2
f 183/2/2 182/2/2 184/2/2
f 187/2/3 186/2/3 185/2/3
f 188/2/3 186/2/3 187/2/3
f 191/2/3 190/2/3 189/2/3
f 192/2/3 190/2/3 191/2/3
f 194/2/3 191/2/3 189/2/3
f 196/2/3 194/2/3 193/2/3
f 197/2/3 191/2/3 194/2/3
f 197/2/3 194/2/3 196/2/3
f 199/2/3 196/2/3 195/2/3
f 200/2/3 196/2/3 199/2/3
f 202/2/3 199/2/3 198/2/3
f 203/2/3 199/2/3 202/2/3
f 205/2/3 202/2/3 201/2/3
f 206/2/3 202/2/3 205/2/3
f 207/2/3 191/2/3 197/2/3
f 209/2/3 206/2/3 205/2/3
f 209/2/3 207/2/3 206/2/3
f 209/2/3 205/2/3 204/2/3
f 210/2/3 191/2/3 207/2/3
f 210/2/3 207/2/3 209/2/3
f 211/2/3 190/2/3 192/2/3
f 212/2/3 210/2/3 209/2/3
f 212/2/3 211/2/3 210/2/3
f 212/2/3 209/2/3 208/2/3
f 213/2/3 211/2/3 212/2/3
f 214/2/3 211/2/3 213/2/3
f 215/2/3 211/2/3 214/2/3
f 216/2/3 212/2/3 208/2/3
f 216/4/3 213/4/3 212/4/3
f 217/2/3 214/2/3 213/2/3
f 217/4/3 213/4/3 216/4/3
f 218/4/3 215/4/3 214/4/3
f 218/2/3 214/2/3 217/2/3
f 219/2/3 211/2/3 215/2/3
f 219/4/3 215/4/3 218/4/3
f 220/2/3 218/2/3 217/2/3
f 220/2/3 217/2/3 216/2/3
f 220/2/3 219/2/3 218/2/3
f 220/2/3 216/2/3 208/2/3
f 221/2/3 190/2/3 211/2/3
f 221/2/3 219/2/3 220/2/3
f 221/2/3 211/2/3 219/2/3
f 226/2/3 225/2/3 224/2/3
f 227/2/3 225/2/3 226/2/3
f 231/2/3 229/2/3 228/2/3
f 232/2/3 229/2/3 231/2/3
f 234/2/3 231/2/3 230/2/3
f 235/2/3 231/2/3 234/2/3
f 236/2/3 234/2/3 233/2/3
f 237/2/3 234/2/3 236/2/3
f 238/2/3 223/2/3 222/2/3
f 239/2/3 223/2/3 238/2/3
f 240/2/3 238/2/3 237/2/3
f 241/2/3 238/2/3 240/2/3
f 245/2/3 243/2/3 242/2/3
f 246/2/3 243/2/3 245/2/3
f 248/2/3 245/2/3 244/2/3
f 249/2/3 245/2/3 248/2/3
f 251/2/3 248/2/3 247/2/3
f 252/2/3 248/2/3 251/2/3
f 253/2/3 251/2/3 250/2/3
f 254/2/3 251/2/3 253/2/3
f 260/3/3 256/3/3 255/3/3
f 261/3/3 256/3/3 260/3/3
f 262/2/3 258/2/3 257/2/3
f 263/2/3 258/2/3 262/2/3
f 264/3/3 260/3/3 259/3/3
f 265/3/3 260/3/3 264/3/3
f 269/2/3 267/2/3 266/2/3
f 270/2/3 267/2/3 269/2/3
f 271/2/3 269/2/3 268/2/3
f 272/2/3 269/2/3 271/2/3
f 277/2/3 276/2/3 275/2/3
f 278/2/3 276/2/3 277/2/3
f 279/2/3 274/2/3 273/2/3
f 280/2/3 274/2/3 279/2/3
f 283/2/4 284/2/4 285/2/4
f 285/2/4 284/2/4 286/2/4
f 281/2/4 282/2/4 287/2/4
f 287/2/4 282/2/4 288/2/4
f 289/2/4 290/2/4 292/2/4
f 292/2/4 290/2/4 293/2/4
f 291/2/4 292/2/4 294/2/4
f 294/2/4 292/2/4 295/2/4
f 296/2/4 297/2/4 299/2/4
f 299/2/4 297/2/4 300/2/4
f 298/2/4 299/2/4 302/2/4
f 302/2/4 299/2/4 303/2/4
f 301/2/4 302/2/4 305/2/4
f 305/2/4 302/2/4 306/2/4
f 304/2/4 305/2/4 307/2/4
f 307/2/4 305/2/4 308/2/4
f 309/3/4 310/3/4 314/3/4
f 314/3/4 310/3/4 315/3/4
f 311/2/4 312/2/4 316/2/4
f 316/2/4 312/2/4 317/2/4
f 313/3/4 314/3/4 318/3/4
f 318/3/4 314/3/4 319/3/4
f 322/2/4 323/2/4 324/2/4
f 324/2/4 323/2/4 325/2/4
f 326/2/4 327/2/4 329/2/4
f 329/2/4 327/2/4 330/2/4
f 328/2/4 329/2/4 332/2/4
f 332/2/4 329/2/4 333/2/4
f 331/2/4 332/2/4 334/2/4
f 334/2/4 332/2/4 335/2/4
f 320/2/4 321/2/4 336/2/4
f 336/2/4 321/2/4 337/2/4
f 335/2/4 336/2/4 338/2/4
f 338/2/4 336/2/4 339/2/4
f 340/2/4 341/2/4 342/2/4
f 342/2/4 341/2/4 343/2/4
f 340/2/4 342/2/4 345/2/4
f 344/2/4 345/2/4 347/2/4
f 345/2/4 342/2/4 348/2/4
f 347/2/4 345/2/4 348/2/4
f 346/2/4 347/2/4 350/2/4
f 350/2/4 347/2/4 351/2/4
f 349/2/4 350/2/4 353/2/4
f 353/2/4 350/2/4 354/2/4
f 352/2/4 353/2/4 356/2/4
f 356/2/4 353/2/4 357/2/4
f 348/2/4 342/2/4 358/2/4
f 356/2/4 357/2/4 360/2/4
f 357/2/4 358/2/4 360/2/4
f 355/2/4 356/2/4 360/2/4
f 358/2/4 342/2/4 361/2/4
f 360/2/4 358/2/4 361/2/4
f 343/2/4 341/2/4 362/2/4
f 360/2/4 361/2/4 363/2/4
f 361/2/4 362/2/4 363/2/4
f 359/2/4 360/2/4 363/2/4
f 363/2/4 362/2/4 364/2/4
f 364/2/4 362/2/4 365/2/4
f 365/2/4 362/2/4 366/2/4
f 359/2/4 363/2/4 367/2/4
f 363/4/4 364/4/4 367/4/4
f 364/2/4 365/2/4 368/2/4
f 367/4/4 364/4/4 368/4/4
f 365/4/4 366/4/4 369/4/4
f 368/2/4 365/2/4 369/2/4
f 366/2/4 362/2/4 370/2/4
f 369/4/4 366/4/4 370/4/4
f 368/2/4 369/2/4 371/2/4
f 367/2/4 368/2/4 371/2/4
f 369/2/4 370/2/4 371/2/4
f 359/2/4 367/2/4 371/2/4
f 362/2/4 341/2/4 372/2/4
f 371/2/4 370/2/4 372/2/4
f 370/2/4 362/2/4 372/2/4
f 373/2/4 374/2/4 375/2/4
f 375/2/4 374/2/4 376/2/4
f 379/2/5 378/2/5 377/2/5
f 380/2/5 378/2/5 379/2/5
f 384/2/5 382/2/5 381/2/5
f 385/2/5 382/2/5 384/2/5
f 387/2/5 384/2/5 383/2/5
f 388/2/5 384/2/5 387/2/5
f 389/2/5 386/2/5 385/2/5
f 390/2/5 386/2/5 389/2/5
f 391/2/5 389/2/5 388/2/5
f 392/2/5 389/2/5 391/2/5
f 396/2/5 394/2/5 393/2/5
f 397/2/5 394/2/5 396/2/5
f 399/2/5 396/2/5 395/2/5
f 400/2/5 399/2/5 398/2/5
f 401/2/5 396/2/5 399/2/5
f 401/2/5 399/2/5 400/2/5
f 402/2/5 396/2/5 401/2/5
f 403/2/5 396/2/5 402/2/5
f 405/2/5 404/2/5 403/2/5
f 406/2/5 404/2/5 405/2/5
f 409/2/5 408/2/5 407/2/5
f 410/2/5 408/2/5 409/2/5
f 412/2/5 409/2/5 407/2/5
f 413/2/5 409/2/5 412/2/5
f 414/2/5 409/2/5 413/2/5
f 415/2/5 412/2/5 411/2/5
f 415/2/5 413/2/5 412/2/5
f 416/2/5 413/2/5 415/2/5
f 417/2/5 413/2/5 416/2/5
f 419/2/5 418/2/5 417/2/5
f 419/2/5 417/2/5 416/2/5
f 421/2/5 419/2/5 416/2/5
f 421/2/5 420/2/5 419/2/5
f 422/2/5 420/2/5 421/2/5
f 426/2/5 424/2/5 423/2/5
f 427/2/5 424/2/5 426/2/5
f 428/2/5 426/2/5 425/2/5
f 429/2/5 426/2/5 428/2/5
f 431/2/5 430/2/5 429/2/5
f 432/2/5 430/2/5 431/2/5
f 436/2/5 434/2/5 433/2/5
f 438/2/5 436/2/5 435/2/5
f 439/2/5 434/2/5 436/2/5
f 439/2/5 436/2/5 438/2/5
f 442/2/5 438/2/5 437/2/5
f 443/2/5 438/2/5 442/2/5
f 445/3/5 441/3/5 440/3/5
f 446/3/5 441/3/5 445/3/5
f 447/2/5 444/2/5 443/2/5
f 448/2/5 444/2/5 447/2/5
f 449/2/5 444/2/5 448/2/5
f 450/2/5 444/2/5 449/2/5
f 453/2/5 452/2/5 451/2/5
f 454/2/5 452/2/5 453/2/5
f 456/2/5 453/2/5 451/2/5
f 457/2/5 453/2/5 456/2/5
f 460/2/5 456/2/5 455/2/5
f 461/2/5 456/2/5 460/2/5
f 463/3/5 459/3/5 458/3/5
f 464/3/5 459/3/5 463/3/5
f 465/2/5 462/2/5 461/2/5
f 467/2/5 465/2/5 461/2/5
f 467/2/5 466/2/5 465/2/5
f 468/2/5 466/2/5 467/2/5
f 474/2/5 472/2/5 471/2/5
f 475/2/5 470/2/5 469/2/5
f 476/2/5 470/2/5 475/2/5
f 477/2/5 474/2/5 473/2/5
f 477/2/5 472/2/5 474/2/5
f 478/2/5 472/2/5 477/2/5
f 479/2/5 475/2/5 469/2/5
f 481/2/5 477/2/5 473/2/5
f 482/2/5 472/2/5 478/2/5
f 483/2/5 481/2/5 473/2/5
f 483/2/5 482/2/5 481/2/5
f 484/2/5 482/2/5 483/2/5
f 485/2/5 480/2/5 479/2/5
f 485/2/5 479/2/5 469/2/5
f 486/2/5 480/2/5 485/2/5
f 487/2/5 482/2/5 484/2/5
f 488/2/5 472/2/5 482/2/5
f 488/2/5 482/2/5 487/2/5
f 491/2/5 490/2/5 489/2/5
f 492/2/5 490/2/5 491/2/5
f 495/2/5 494/2/5 493/2/5
f 496/2/5 494/2/5 495/2/5
f 499/2/5 498/2/5 497/2/5
f 500/2/5 498/2/5 499/2/5
f 501/2/6 502/2/6 504/2/6
f 503/2/6 504/2/6 505/2/6
f 504/2/6 502/2/6 506/2/6
f 505/2/6 504/2/6 506/2/6
f 506/2/6 502/2/6 507/2/6
f 507/2/6 502/2/6 508/2/6
f 509/2/6 510/2/6 512/2/6
f 512/2/6 510/2/6 513/2/6
f 511/2/6 512/2/6 514/2/6
f 514/2/6 512/2/6 515/2/6
f 515/2/6 516/2/6 517/2/6
f 517/2/6 516/2/6 518/2/6
f 519/2/6 520/2/6 522/2/6
f 521/2/6 522/2/6 523/2/6
f 522/2/6 520/2/6 524/2/6
f 523/2/6 522/2/6 524/2/6
f 525/3/6 526/3/6 529/3/6
f 529/3/6 526/3/6 530/3/6
f 527/2/6 528/2/6 531/2/6
f 531/2/6 528/2/6 532/2/6
f 532/2/6 528/2/6 533/2/6
f 533/2/6 528/2/6 534/2/6
f 535/2/6 536/2/6 537/2/6
f 537/2/6 536/2/6 538/2/6
f 539/2/6 540/2/6 541/2/6
f 541/2/6 540/2/6 542/2/6
f 543/2/6 544/2/6 545/2/6
f 545/2/6 544/2/6 546/2/6
f 547/2/6 548/2/6 549/2/6
f 549/2/6 548/2/6 550/2/6
f 547/2/6 549/2/6 552/2/6
f 550/2/6 551/2/6 553/2/6
f 553/2/6 551/2/6 554/2/6
f 547/2/6 552/2/6 555/2/6
f 552/2/6 553/2/6 555/2/6
f 555/2/6 553/2/6 556/2/6
f 557/2/6 558/2/6 559/2/6
f 559/2/6 558/2/6 560/2/6
